/* XPM */
static char *b0a516bff7194dbc869e32573c837e03NhPHdMngXKuQfzSO[] = {
/* columns rows colors chars-per-pixel */
"54 62 72 1 ",
"  c None",
". c #4F2713",
"X c #4E2913",
"o c #532C14",
"O c #542E19",
"+ c #57321C",
"@ c #59341D",
"# c #5D381E",
"$ c #5B3721",
"% c #5E3B24",
"& c #613D25",
"* c #613E29",
"= c #624127",
"- c #64442C",
"; c #674B2F",
": c #694A2F",
"> c #674731",
", c #654A35",
"< c #6A4D31",
"1 c #634C38",
"2 c #6C4E39",
"3 c #6E5134",
"4 c #66513D",
"5 c #68523F",
"6 c #705335",
"7 c #735539",
"8 c #75593B",
"9 c #785A3E",
"0 c #675341",
"q c #695542",
"w c #6C5843",
"e c #6F5F4D",
"r c #7A5E43",
"t c #6F604E",
"y c #7D6144",
"u c #73624E",
"i c #7F6548",
"p c #746552",
"a c #796653",
"s c #7A6A56",
"d c #7C6D5C",
"f c #7E705E",
"g c #806649",
"h c #836A4D",
"j c #876E52",
"k c #886F52",
"l c #806F5E",
"z c #877053",
"x c #8A7256",
"c c #81715F",
"v c #8C765A",
"b c #8E795C",
"n c #907A5D",
"m c #827564",
"M c #857866",
"N c #867968",
"B c #897C6B",
"V c #947F63",
"C c #8E816F",
"Z c #968165",
"A c #988267",
"S c #9A8569",
"D c #8F8271",
"F c #928576",
"G c #948778",
"H c #968B7B",
"J c #988C7E",
"K c #998F81",
"L c #9C9283",
"P c #9F9588",
"I c #A0978A",
"U c #A2988C",
/* pixels */
"                                                      ",
"                                                      ",
"                                                      ",
"                                                      ",
"                                                      ",
"                                                      ",
"                                                      ",
"                                                      ",
"                                                      ",
"                                                      ",
"                                                      ",
"                                                      ",
"                                                      ",
"                                                      ",
"                                                      ",
"                                                      ",
"                                                      ",
"            &$@@                      %@@$            ",
"           $laaOooooo@ oooooooo oooooo%aad@           ",
"           >Mll&66666h@h6366669$g6<666*dlM*           ",
"           <HBB&yhhhhz-nhhhhhhx-zhhghg*BBH-           ",
"           2KSG*ghhhhn:Vhhhhhhn:vhhhhj>FFK>           ",
"           2IGG*gvbbnA8nvbvbbbn:vvvbvv-FFP>           ",
"           2UJI*hbbbbA8Zbbbbbbn:nMvvvb>HHP>           ",
"           2UUU*hVAnVS7AZVVVVVV<VVVVVV>IIU,           ",
"           2UII-hAAAAS9AZZZZZZZ<AVVAVV>PIU2           ",
"           2UII&gnAVVS7AVZZVVZA>AVVVVZ>PII,           ",
"           -UJH#hnnnnA7AbbbbbbA:Vbnbbb>HHI<           ",
"           -IJJ#gnnnnV7AnnnnnbZ:Vbnbnn-HHI>           ",
"           *ICC@gnnnnV<VbbbnbbZ-VVbnnn*FBL<           ",
"           &JDC@9hhhjx<xhhhhhhv&xhhhhh-BBK>           ",
"           &HBVo9hhhhk&xhhhghhv#jhhhhh*NBH-           ",
"           &FBBo8jhjgj#zyyyryrz+zhihis=MMD=           ",
"           @oooo88888go6%$%@$#y+887766%ooo$           ",
"           @HJJooooooooooCCCC+oOoXooXo+GHF%           ",
"           &Bllo;=====o%odooso%o3-----offC%           ",
"           %Mldo;66688o<opmoeo%o836663ossM$           ",
"           *cauo=33338o;oteoeo%o8<<<<<oppm@           ",
"           $dupo=33<38o<o04s0o%X8<<<<<optd+           ",
"           +puuo=<3<<8o<=oooo%<o8<;3<<Xttpo           ",
"           ouwwo=;;::8o;;====<<o8<;;;<XwwuX           ",
"           Xuwq.&;;;;8o<<;3;<<<o8;;;;;Xqqp.           ",
"           XuwwX=;;;=8o;<<;;;<<X6;;;;<Xwqp.           ",
"           X$$++%%%%%8o%%==%%%%o8%%%%%++@+.           ",
"           .MmmmXXXoooooXXXXooXoXOOXXXmmmM.           ",
"           XtttpXsdfdmMBCCCCBNNNMfffsXatee.           ",
"           .111pX544450q0045qq0q00540ou111.           ",
"           ....o......XXXXXX....XXXX.......           ",
"                                                      ",
"                                                      ",
"                                                      ",
"                                                      ",
"                                                      ",
"                                                      ",
"                                                      ",
"                                                      ",
"                                                      ",
"                                                      ",
"                                                      ",
"                                                      ",
"                                                      ",
"                                                      "
};
