/* XPM */
static char *a16c8c4b2c3a44b49dc46cd52946789bZwcumXihM0ZGWFpZ[] = {
/* columns rows colors chars-per-pixel */
"54 62 127 2 ",
"   c None",
".  c #4F2713",
"X  c #4F2913",
"o  c #502713",
"O  c #522A15",
"+  c #552F19",
"@  c #56321B",
"#  c #59351D",
"$  c #5C391F",
"%  c #5B3721",
"&  c #5D3C22",
"*  c #603D25",
"=  c #633E28",
"-  c #5F4024",
";  c #5F4531",
":  c #614126",
">  c #64442A",
",  c #68442B",
"<  c #66492C",
"1  c #694C2E",
"2  c #6B502F",
"3  c #644732",
"4  c #684731",
"5  c #6C4D32",
"6  c #644D39",
"7  c #6D4E39",
"8  c #6E5334",
"9  c #66513D",
"0  c #68533F",
"q  c #715536",
"w  c #725837",
"e  c #745739",
"r  c #755B3B",
"t  c #795F3F",
"y  c #79603F",
"u  c #6A5542",
"i  c #6D5A44",
"p  c #795F40",
"a  c #715E49",
"s  c #795F4C",
"d  c #6F604E",
"f  c #7B6242",
"g  c #74624D",
"h  c #766552",
"j  c #786551",
"k  c #796651",
"l  c #7A6651",
"z  c #7A6751",
"x  c #7A6752",
"c  c #796754",
"v  c #7A6754",
"b  c #786753",
"n  c #776854",
"m  c #7A6956",
"M  c #7B6956",
"N  c #796955",
"B  c #7C6A58",
"V  c #7E6C58",
"C  c #7E6D58",
"Z  c #7D6E5C",
"A  c #7F705F",
"S  c #806546",
"D  c #816747",
"F  c #836849",
"G  c #826949",
"H  c #836A4A",
"J  c #856C4D",
"K  c #866E4E",
"L  c #846B4A",
"P  c #886F4F",
"I  c #88704F",
"U  c #886F50",
"Y  c #826F5C",
"T  c #887151",
"R  c #897252",
"E  c #8A7353",
"W  c #8C7453",
"Q  c #8C7555",
"!  c #8C7556",
"~  c #8D7656",
"^  c #8D7657",
"/  c #82705D",
"(  c #81715E",
")  c #8D7758",
"_  c #8E7958",
"`  c #8F7958",
"'  c #8E7859",
"]  c #8E7959",
"[  c #8F7959",
"{  c #8F7A5B",
"}  c #917C5D",
"|  c #927D5E",
" . c #837563",
".. c #857966",
"X. c #897A66",
"o. c #877B6A",
"O. c #8C7C6B",
"+. c #8D7E6C",
"@. c #8A7D6C",
"#. c #937F60",
"$. c #8F816F",
"%. c #8E806E",
"&. c #8F8270",
"*. c #928675",
"=. c #928574",
"-. c #958875",
";. c #948877",
":. c #968976",
">. c #948877",
",. c #958978",
"<. c #968979",
"1. c #9A8E7E",
"2. c #9A8E7F",
"3. c #9B8F7F",
"4. c #998E7D",
"5. c #9A8F80",
"6. c #9C9281",
"7. c #9E9382",
"8. c #9F9585",
"9. c #9D9283",
"0. c #A09686",
"q. c #A09687",
"w. c #A39888",
"e. c #A39889",
"r. c #A49989",
"t. c #A4998A",
"y. c #A59A8A",
/* pixels */
"                                                                                                            ",
"                                                                                                            ",
"                                                                                                            ",
"                                                                                                            ",
"                                                                                                            ",
"                        , , , ,                                             , = , >                         ",
"                      5 0.-.-., , , = , , = > = > = = > > = > = = > , = , > 4 -.>.6.5                       ",
"                      8 0.:.-., S F U W E ! ) ' ' ' ) ) ! E R R R U K F F F = >.>.0.7                       ",
"                      7 y.y.y., S P W ` | | | %.& * * * * % [ [ ` ` ~ P L D = t.y.y.7                       ",
"                      + / z z + 2 2 e q e e e e O +.s O.O.O e e e r e q 5 5 = J j Y +                       ",
"                      O M g j + O O + O O O O O O :.:.7 =.O + O O O O O O O O s g Y O                       ",
"                      O Y a g O $ = $ - $ * - & O 5.5.5.3.O * * & & * $ $ $ O S a M O                       ",
"                      O M a g O $ $ $ $ & & & & O j g j l O * $ $ & $ $ $ $ O g a M O                       ",
"                      O x a g o , , , , > , > > : O O O O * : * : - * & $ & O a a z O                       ",
"                      o j i a o $ , $ , > : : : > : : : : : : : & : - * & $ o a i j O                       ",
"                      O g i i o * $ : : : : : : : : : * : : : * : : & & $ & o i i g O                       ",
"                      . s u u . : : , > < < < < < , , < < < < < < < < > = > . u u g .                       ",
"                      . a u u . : , , < < < < < < < < 1 1 < < < < < < < > & . u u g .                       ",
"                      . a u u . - : < < 1 < < 1 1 1 1 1 1 < 4 1 < < 1 < - - . u u a .                       ",
"                      . a u u . - < < 2 1 1 1 1 1 1 1 1 4 1 1 1 1 1 1 , > > . u 9 a .                       ",
"                      . i u 6 . 2 w w w w w w r w w r w e w w w w w q q 5 5 o 9 9 a .                       ",
"                      . u 6 6 . < w r w w r r r w r r r e r e w w w w w 8 8 o 6 9 u .                       ",
"                      . u 6 6 . < w w r r r r r r r r r r r r r e r e q 8 1 o 6 6 u X                       ",
"                      . u ; ; . 2 w w w r r r r r t r r r r r r r r r q 8 8 o > 3 6 .                       ",
"                      & = & % @ 8 r r r y y y y y y y y r y y y y y y r t w O o o . o                       ",
"                      % &.&.o.+ % & & & - - - - > , > , , < > > : > > > * & O $.&.&.o                       ",
"                      + i i u . X X . . X X X X O O O O O O O O X O X X O o o i i i &                       ",
"                      @ % % % % 8 8 r r r r y y r y y f f f y r y r y w w q o * & & &                       ",
"                      @ ( N z O < < < < < < < < < < < < < < < < < < < < 1 < O z m  .+                       ",
"                      @ X.N N O < > > > < < - < < : < < , < > < < > < < < < O B B ..+                       ",
"                      $ %.( ( @ ; > > > - - < - : < > : : : > : > > > > > > O (  .@.#                       ",
"                      $ $.X.( + - & & - $ - & $ - $ $ - - - $ - - $ - & - $ O  . .&.%                       ",
"                      = ;.o.o.@ & - & & & & & & & & % & # - - # - - % - & & @ %.A 5.&                       ",
"                      = ;.@.O.$ - - & - & & & & & & - % - # # - # - - % & & # A %.;.>                       ",
"                      > :.+.+.% - - - - & & & & - - % % # - - % - @ % % & & # &.%.*.;                       ",
"                      < 3.$.=.& # $ # @ % @ @ # @ @ @ @ @ @ @ @ @ @ @ @ @ @ % &.&.5.;                       ",
"                      , 1.=.=.$ $ @ # @ @ @ # @ @ @ @ @ @ @ @ @ @ @ @ @ @ @ % &.+.4.<                       ",
"                      4 1.=.=.* # # @ # @ $ @ @ @ @ @ @ @ @ @ @ @ @ @ X @ @ & *.=.4.3                       ",
"                      < 5.>.=.* $ # # @ @ @ # @ @ @ @ @ @ @ @ @ X @ @ @ + @ ; *.>.5.3                       ",
"                      4 0.>.>.* O O O O X + $ X X X X X X X X @ X X X X X X % *.=.0.4                       ",
"                      4 q.9.5.= w z L L L L O L L f L f I L L O L L L K L L & 4.5.e.3                       ",
"                      O @.( A + 2 y y y r y @ y y y y y y y f O f r r r r y @ A ( O.=                       ",
"                      O @.Z Z O < y y r y y O y w w w w w y f + f r r r r r + A Z @.%                       ",
"                      O  .m v + < w y y r y O y y w w y w w y X f r r r t r + n h  .%                       ",
"                      + A h h O - w w w 8 y X r 2 8 8 8 8 8 y + f 8 8 q q r O h h Z #                       ",
"                      O n d a + ; 8 8 8 8 y X y 8 8 8 8 8 8 y X y q 8 8 8 8 X g d m +                       ",
"                      o h d a X - w 8 8 2 y X w 8 8 8 8 8 8 y + y 8 8 q 8 8 X i i h O                       ",
"                      o h i i O - 2 2 1 2 w X w 1 < 2 2 < 2 w X q 8 2 2 2 8 X u i j o                       ",
"                      o h i u X & 8 1 2 1 r X 8 1 1 1 2 1 1 w X q 2 2 2 2 2 X 0 u h .                       ",
"                      o % & % % - - > - - r X 1 ; > > > > ; 2 X 2 ; - > ; > @ $ % % .                       ",
"                      O .. . ...X X X X O O + X X + . + X X O X O X O X X X ..A  ....                       ",
"                      . d d d n X Z Z Z A A ..%.@.@.@.@.%...%.......A A A X n d d a .                       ",
"                      . 6 6 6 h X 9 9 9 u u u u u u u i i u u u u u u u 0 X h 6 6 6 .                       ",
"                      . . . . . . . . . X X . . . . . . . . . . . . . X X X X X . . .                       ",
"                                                                                                            ",
"                                                                                                            ",
"                                                                                                            ",
"                                                                                                            ",
"                                                                                                            ",
"                                                                                                            ",
"                                                                                                            ",
"                                                                                                            "
};
