/* XPM */
static char *result[] = {
/* columns rows colors chars-per-pixel */
"64 64 84 1 ",
"  c #4B2613",
". c #4F2913",
"X c #522B14",
"o c #522F19",
"O c #4F311E",
"+ c #55321C",
"@ c #5A351D",
"# c #5D381F",
"$ c #603B1F",
"% c #4F3625",
"& c #543522",
"* c #5B3720",
"= c #553826",
"- c #5B3B26",
"; c #563B2B",
": c #593D2A",
"> c #573F31",
", c #623D23",
"< c #574234",
"1 c #5A4232",
"2 c #5A4739",
"3 c #5B4A3D",
"4 c #644226",
"5 c #664529",
"6 c #684629",
"7 c #67482B",
"8 c #6A4A2D",
"9 c #624937",
"0 c #6C4E31",
"q c #654F3C",
"w c #6E5234",
"e c #66513E",
"r c #6C553E",
"t c #715537",
"y c #765837",
"u c #735738",
"i c #755A3A",
"p c #795E3E",
"a c #7A603F",
"s c #5D4D42",
"d c #5C5247",
"f c #5E5348",
"g c #675342",
"h c #695642",
"j c #6C5A46",
"k c #6D5C48",
"l c #715D47",
"z c #7A5F40",
"x c #715E48",
"c c #655F57",
"v c #665F58",
"b c #7D6241",
"n c #74624C",
"m c #666057",
"M c #676159",
"N c #6A655C",
"B c #6D685F",
"V c #756551",
"C c #786751",
"Z c #7B6A55",
"A c #7E6E5A",
"S c #7F705B",
"D c #706B62",
"F c #7F7262",
"G c #767469",
"H c #7D7B70",
"J c #806545",
"K c #836947",
"L c #846B4B",
"P c #896F4F",
"I c #81715C",
"U c #847562",
"Y c #867966",
"T c #897B67",
"R c #8C7F6C",
"E c #8E806C",
"W c #868579",
"Q c #88877B",
"! c #938574",
"~ c #8D8B83",
"^ c #918F88",
"/ c #94928B",
"( c #99978F",
") c None",
/* pixels */
"--:---:-:-----:-)---:------;-4=--=4==4=;44%4%4<+)4=44=---1+4=4%-",
"WWWWWWWWWWWWWWWW1WQWWWWWWWWWWWWWWWWWWWWWWWWWWWWW1QWWWWWWWWWWWWWW",
"WWWWWWWWWWWWWWWW9WWWWWWQWWWWWWWWWWWWWWWWWWWWWWWW2WWWWWWWWWWWWWWW",
"WWWWWWWWWWWWWWWWhWWWWWWWWWWWWWWWWWWWWWWWWWWQWWWWgWWWWWWWWWWWWWWW",
"^^/^^^^^^^^^/(((r/(((///////////^^^/^^^^^^^^/(((g/(((///////////",
"BBBBBBBBBBBBBBDB1BBBBBBBBBBBBBBBBBBBBBBBBBBBBBBB1BBBBBBBBBBBBBBB",
"BBBBBBBBBBBBBBBB1BBBBBBBBNBNNNBNBBBBBBBBBBBBBBBB1BBBBBBBBBBNBBBN",
"BBBBBBBBBBBBBBBB1BBBNBBBBBBBBBBBBBBBBBBBBBBBBBBB1BBBNBBBBBBNBNBB",
"BBBBBNBNBBBNBNBB1NBBBBBNBBBNBNNNBBBBBBBBNBNBBNBN<BBBBBNBNBNBBBNN",
"NBNBBBBBNBBNNBBN1NNNNNNNNNNNNNBBBBBBNBNBBBBNBNNB<NNNNNNNNNNNNNBN",
"BNNNNNNNNNBNNBNN1BNBNNBNNNNNNBNNNBMBBBBNNBNNNBNN1BNNNBNNNNNNNNNN",
"NNNNNNNNNNNNNNNN;BNNNNNNNNNNNNNNNNNNMNNNNNNNNBNN4NNNNNNMNNNNNNNN",
"NNNNNNNNNNNNNNNN+NNMMNNNNNNMNMNMNNNNNNNNNNNNNNMNONNMNNmNmNNmNNMN",
"NNNNNNMNNMNNNNMN+MMNNNmNMNNNNNNNNMNNMNMNMNNNNNNNOMMNNmNNNNNNmNmN",
"NmmNNMNNMNNMMNMN+MMMMMNMMNmNMMNNMNNMNNMNNNMMmNmN+MMNNNNNNmmNMNNN",
"mNmmMMmMMMMNMNMM+NMNmNmmNmNmNMMMMMMMMMMMmMMNNmNmONMMMMmmNmNNMmNm",
"mMMMMMMMMMMMMMMMOMMMMMMMMMMMMMvMMMMMMMMMMMMMMMMMOMMMmmNmMMMMMMMM",
"MMmmMMMMMMMMMMmm+MMNMMMMvvMMMMMvMMMMMMMMMMMMMMMM@MMMmNmmMMMMMMMM",
"XX....X........Od...........XX    X.X.X ........f.....  ........",
"dddddddddddddddfddfff.PbJ$bbyyJ$ppbaa465bb dffdfffffdddOdddddddf",
"dddddddddddddddfdfd. iPbJ$bbJiJ6ypbbb66Lbbz  ddfffdfdddOdddddffd",
"dddddddddddddddfdd.,iPKbJ6bbpbb4abbba6Kabbb4b fdfffdddd%ddddfddf",
"dddddddddddddddff i4yPbLJ4zpzJJ6abbba8bbzbl7paXdfdffdddOdddfdffd",
"dddddddddddddddd.pi5KKbbJ6JJzzb6bbbbb7zbzbb8aap.fffdddd<ddddfdff",
"dddddddddddddddf pp5zJJJJ6pbbpJ6bbabb8Japbb0paaXfdddddd%ddfddddd",
"MMMMMMMMMMMMMMN.iyp7JJJJJ6pbzzJ6JbJab6aabbpwaapa.NccMMM>MMMMMMMM",
"mmMMNMMMMMMMMMNXyiy8bJJJJ6bpzzJ6KbbJJ8abbpb0apap NccMMM=MMMMMMMM",
"ddddf33ddddff33yiyp8JbJ6J8JpzzJ6KbJbb6J,abz0apppi%;><>;;<3ffffff",
"BBBBBB3BBBBBBBN&##$,,44!,0pzzzJ6Kbbbb86E,,,$$@@@=NDNBBBBBBBBBBBB",
"MMMMMMdMMMMmMMN;IIIITIIZR,pJzzJ6KbJbb,!KUIIIIIIZ%MMMMMvMMMMMMMMM",
"MMMMMMdMMMMMMMN;nnnZLZZZPR,ppzJ6Kbbb,!LLZCnnxxxl&NMMMMMMMMMMMMMM",
"MMMMMM3MMMMMMMB;nnnZZZZIIXpzzpJ6KbbbbXZZCCxxnxxj+NMMMMMMMMMMMMMM",
"MMMMvNsvMMMMNvN=XXXXXXoZX0pzzzb7KJbbb8XLooXXXX.oONmMMMMMMMMvMMMM",
"MMMMvvsNMMMMvvB%668@080X00zpzbb5Kbbbb88X77878877&NMMMMMMMMMMMMMM",
"MMMMNv>vMMMMvNN;yyy,bpz8w0ppzzb7LbbJa8a8zziwyiyu;BMMMMMvMMMMMMMM",
"MMvvNv>vvMMMvvN;iuy,Jpzz00ilzzb5LJbba8aapbbwiwuu-MMMMMMvMMMMMMMM",
"332;>&&>23ddf22uuyu7zpzz00ppiab7Pabaa8aabzz0uuuut<>2223s2ssfffff",
"NNNNvNNNNNNNNBB.uui7zppi80ppaab5PbabJ0aaizpwuuuu&NBBBBMsNNNBBBBB",
"vvvvvvvvvvvvvvvouuy8zpppp0ipiia5Pabaa0baziz0wutt&Ncccvvsvvvvvvvv",
"vvvvvvvvvvvvvvNOuuu8zpyyy0piaia5Laaaa0bpizz0uwtu&Nccvvvsvvvvvvvv",
"vvvvvvvvvvvvvvNoutu8ziiyi0pii###,#aaawappia0tttt&Nvvvvvsvvvvvvvv",
"vvvvvvvvvvvvvvNotut8ziiiu0ii#EEEET#aawapyii0wtww=Nvvvvvdvvvvvvvv",
"vvvvvvvvvvvvvvNoutu0ziuut0ui#nnnnn#aawaiipi7wwww&Nvvvvvsvvvvvvvv",
"vvvvvvvvvvvvvvNOtut0zuuutwiu@nn.nn@yiwayyyp7twww&Nvvvvv=vvvvvvvv",
"vvvvvcvvvvvvvvN.ttu0ztutu0uaXxxXjlXyi0apiii5wwww&Nvvvvv;vvvvvvvv",
"fddss333sddss2>ttut0zutut0uuXrrrrr.py8apiiy5www00>>>>>>>>>ssssss",
"NBBBNBsNNBBBBBN=uty7zuu*t0uy7.....6ui0a-ipp5w000%BDBNBBBBBBBBNNN",
"vvvvvv3vvvvvvvN=@@@***,R$8iuy77+68yuu0*E-*@#@@&@=vvvvvvvvvvvvvvv",
"vvvvvvsvvvvvvvN=AZZIIUUCT#yiiui4iyiyy-EVIIAZZZZC&Nvvvvvvvvvvvvvv",
"vvvvvvfvvvvvvvN=jnnnCCCCZT*writ4uiuu-Ennnnljxkxr&Nvvvvvvvvvvvvvv",
"vvvvvvfvvvvvvvv-lllnnnCCC.ituuu4uuyyt.VVVnklljlr=Nvvvvvvvvvvvvvv",
"vvvvvv>vvvvvvvN+.....X.C.4iwwuu4tuttt4.kX ...X X&Nvvvvvvvvvvvvvv",
"vvvvvv:vvvvvvvNo445@707.74ttttu4uwtww48.55544,,,&Nvvvvvvvvvvvvvv",
"vvvvvv>vvvvvvvNXw0w#www0w4ttttt#uwwww4i7yyp-0000&Nvvvvvvvvvvvvvv",
"++++@+++++++++++w0w-wwwww4wtwtt+wtuww4iipyi-0900 o o++++++++++++",
"GGGGGGGGGGGGGGGHoww4rwwww4rwttwowwwww-iiypy-000+RGGGGGGGGGGGGGGG",
"GGGGGGGGGGGGGGGR+---#@*@@++o+o..OoO++@@@*@+oooo.WGGGGGGGGGGGGGGG",
"GGGGGGGGGGGGGGGH+nnVVVCZZZCVZSF.FFSAZZZVVVVVVVV.RGGGGGGGGGGGGGGG",
"GGGGGGGGGGGGGGGH.YYYYYYYRREWE!!.!!EEEEYHYYUUUUU.WGGGGGGGGGGGGGGG",
"WQWWWWWWQWWWWWWW.eehhejhjjjjkkn.Ckkkkjjjjhhhgqg.~~WWWWWWR~WWWWWW",
"vvvvmmmmvvvvvvvD.eeeghjhjjjjkkV.Vkkkkjjjjhhrqqg.GvvvmmmmvMvMvvvv",
"vvMvmMmmvvvvvvvD.ehhhhhjjhhjjkN nkkkkkkhjhhhhgq.GvvvmmmmMvMvvvvv",
"mccmccvcvMvvvvvD.hhhhhhjhkjkkjV.nkkkjkjjhhhhghh.GMvvmmmMcmvvvvvv",
"..X.X X..X o X  .. .. ....  .. ... .... . .   . .   ............"
};
