/* XPM */
static char *f6fd02d464c346819bad7d8330e42530qtG7kOuFv98i3sGJ[] = {
/* columns rows colors chars-per-pixel */
"64 64 159 2 ",
"   c None",
".  c #4D250E",
"X  c #4D2712",
"o  c #4E2813",
"O  c #522C15",
"+  c #512E1A",
"@  c #573017",
"#  c #56331C",
"$  c #59351C",
"%  c #5C391F",
"&  c #553622",
"*  c #583723",
"=  c #553825",
"-  c #5D3B23",
";  c #573A28",
":  c #5A3D2A",
">  c #613D24",
",  c #5D412E",
"<  c #5F4533",
"1  c #5F4738",
"2  c #624126",
"3  c #64442A",
"4  c #69472B",
"5  c #67482C",
"6  c #6A4A2E",
"7  c #614632",
"8  c #644A36",
"9  c #6D4E31",
"0  c #644D3A",
"q  c #684F3A",
"w  c #704E31",
"e  c #6E5134",
"r  c #66513E",
"t  c #6B523D",
"y  c #715436",
"u  c #735739",
"i  c #765A3B",
"p  c #795D3E",
"a  c #7B603F",
"s  c #675340",
"d  c #6A5642",
"f  c #6C5A45",
"g  c #6D5C49",
"h  c #715741",
"j  c #725C45",
"k  c #7A5E40",
"l  c #725E4A",
"z  c #7D6241",
"x  c #7D6240",
"c  c #7E6240",
"v  c #7E6241",
"b  c #7C6042",
"n  c #7C6143",
"m  c #7C6242",
"M  c #7D6243",
"N  c #7D6343",
"B  c #7E6242",
"V  c #7F6342",
"C  c #7E6243",
"Z  c #7C6141",
"A  c #7D6445",
"S  c #7F6444",
"D  c #7F6544",
"F  c #7E6445",
"G  c #7E6545",
"H  c #7F6446",
"J  c #7F6546",
"K  c #7F6547",
"L  c #7C6241",
"P  c #74624D",
"I  c #7F6649",
"U  c #7A634C",
"Y  c #776651",
"T  c #796752",
"R  c #7B6A55",
"E  c #7D6D5A",
"W  c #7F705E",
"Q  c #806544",
"!  c #806445",
"~  c #816445",
"^  c #806545",
"/  c #816545",
"(  c #806645",
")  c #806546",
"_  c #806547",
"`  c #826546",
"'  c #806646",
"]  c #816747",
"[  c #826646",
"{  c #826746",
"}  c #826747",
"|  c #806545",
" . c #836847",
".. c #816648",
"X. c #816748",
"o. c #816749",
"O. c #826749",
"+. c #816749",
"@. c #816848",
"#. c #836848",
"$. c #826849",
"%. c #836849",
"&. c #836949",
"*. c #82684A",
"=. c #82694A",
"-. c #83694A",
";. c #836A4A",
":. c #846948",
">. c #84694A",
",. c #846B4A",
"<. c #846A4B",
"1. c #846B4B",
"2. c #866B4B",
"3. c #866C4B",
"4. c #876C4B",
"5. c #856B4C",
"6. c #846B4E",
"7. c #866C4C",
"8. c #876C4C",
"9. c #866C4D",
"0. c #876C4D",
"q. c #866C4E",
"w. c #876D4E",
"e. c #866D4F",
"r. c #876E4F",
"t. c #826949",
"y. c #886D4C",
"u. c #896E4D",
"i. c #896F4E",
"p. c #8A714F",
"a. c #8B714F",
"s. c #876F51",
"d. c #866D50",
"f. c #886E50",
"g. c #816D5A",
"h. c #8A7051",
"j. c #8B7353",
"k. c #8D7453",
"l. c #8D7454",
"z. c #8D7556",
"x. c #8F7657",
"c. c #82725D",
"v. c #8F7658",
"b. c #907856",
"n. c #917959",
"m. c #927958",
"M. c #91795A",
"N. c #92795A",
"B. c #937B5C",
"V. c #947D5D",
"C. c #967E5E",
"Z. c #837462",
"A. c #867967",
"S. c #887865",
"D. c #867968",
"F. c #897C6B",
"G. c #967F60",
"H. c #978061",
"J. c #998263",
/* pixels */
"                                                                                                                                ",
"                                                                                                                                ",
"                                                                                                                                ",
"                                                                                                                                ",
"                                                                                                                                ",
"                                                    6 6 w w w w 4 6 w 9 w y w                                                   ",
"                                          4 6 4 4 w [ :.` ` ` i 2 ~ ~ ~ ~ Q k > > > 2                                           ",
"                                      6 6 y.0.u.p 6 i.a.i.u.u.p 4 [ y.y.1.y.c > y y u 9 > 2                                     ",
"                                  > w O.7.l.b.v.~ y B.C.V.N.v.O.4 x.N.N.b.b.:.2 u p p i y 9 - %                                 ",
"                              4 i 9 w v.G.G.G.J.7.6 1.y.1.*.7.H 4 Q 1.1.:. .a 4  .y.u.0.*.y > 4 3                               ",
"                            6 k ` i i b.f.x.l.l.k 4 p p i u k i 2 i p p a a i 2 u k S 7.*.I 3 9 6 4                             ",
"                          9 k y.v.k w [ i 7.O.c y 6 a c p p k i 4 p p a c c a 4 3 u k Z A A 5 k i 9 4                           ",
"                          w ` l.a.i 4 i Q 1.Q ~ i 6 ~ a Z k Z i 6 p a c c c a 6 i H Z Z Z i 6 Z ~ i 6 *                         ",
"                        6 i 0.0.Q 6 4 i 7.Q Q Q i 6 b a Z Z c i 6 i c c c c i 6 c k Z k Z i 6 i H H i 3 >                       ",
"                        e *.O.p i 6 6 H O.Q ~ ~ i w p ~ Z Z H i 6 a c c c a i w p Z Z Z b p e i p H Q i *                       ",
"                      9 k f.p i p 9 y Q S Q ~ ~ p w a p Z k H i w c c c c c p w k k k Z b i e i a k H I 4 >                     ",
"                    2 u ` O.i i i y y c ~ Q Q Q i w p c k p c p w a V V a V p e p m a a a a 6 a a p c I j -                     ",
"                    > i >.i i i i y y Q ~ Q Q Q i y p c Z c H i w V V a Q a p 6 p m m a a a e a a p p S d.3                     ",
"                    > y H i i i i y y c ~ ~ i p u w p Z k Z c p w a V V V V p e p u i m a i y a a p a Z I -                     ",
"                    $ 2 9 9 9 9 w 6 6 u u i k k y y k k k k c p e  .V V V a a 6 u g p y u e 5 e y y e e 9 $                     ",
"                    $ , 8 q t e q u d u h h Z.g.e 9 k k p b Z p e ( c a a V a 6 j c.R t u t t t q q 8 8 8 $                     ",
"                    @ q T R R E g.g.c.c.c.Z.g.c.c.i i p b b Z p e ( V V V a i A S.W g.c.W R R R R R R R P ;                     ",
"                    @ 5 j b P P P T R R R R g.R E T e i i b Z p e ( V a a i i c.R T R T Y P P P P P j h t &                     ",
"                    @ , t r d i j j l l l P R U t 3 j b i a m i e ( c ( V a u , j Y P P g t t t d d t t t $                     ",
"                    @ @ @ # # $ # @ @ * $ - d q 2 y p p k p Z i w ( ( a a ( a 5 % i 8 $ $ $ % # $ $ # # $ O                     ",
"                    + - 4 4 5 5 6 3 2 w 9 9 > 4 6 u p p a p b i e  .D D V a a 9 6 , , e 9 9 6 6 6 6 6 6 5 #                     ",
"                    O 4 u i i u i 6 6 p k a y e w y p k p p Z i e  .a a a a i w i t u m a i e y u i u u e $                     ",
"                    O 3 u u u u u 9 9 k k a p y 9 y i p p j b i w  .D a a a a w i a m i a a e y u u u u e %                     ",
"                    O 4 u u u u u e y p p p p y 9 y p p p p b u e @.D a a D a w p a p m a a y y u u u u e *                     ",
"                    O 2 u u u u y e y a i p i y 6 y i p p i b i e @.D a a a a w a a p i i i e y u u u u e $                     ",
"                    O 2 u u u u u e y p p p i p y y i p p h Z i e *.m a a a a 9 a a i a i i e y y y e u e &                     ",
"                    O 2 u u u u u w y p i i i i y w i i i i p u 9 S a a a a a e j m a i a i e y y y u e e %                     ",
"                    O 2 y u u u u e e a a i u a e e i u i < 5 , 3 7 4 u Z a p y a i i i a i 6 y y u y y e #                     ",
"                    O , u u y u u w e a u u u u e e i a 5 Y H.A.c.S.Z.u e p i y a a i a i i e e y e e e e #                     ",
"                    O 2 y u u y u 9 y a u u u y y e u u , j R Y R Y Y 8 w a i y a u u a i i 6 e e e y y e #                     ",
"                    . , y y u y y e y a u u u u e e i u , t P i 3 P P 7 6 i i e a a i i i t 6 e e e t e e $                     ",
"                    o 3 y y u u u e y a u u u u e e i u - 0 l r , j f , 5 i u e i i i i a u 5 e e e e e 9 #                     ",
"                    . , u y y u y e e i u u u y e e i u % 8 u t 9 t t - 3 i y e a a i i u u 5 6 e e e e 9 #                     ",
"                    o 2 y y y e y e u a u e 5 9 e e u u 5 % # , # = % , w u y e a 6 w a a y 5 e e e e e 6 #                     ",
"                    o @ > > > , 2 - , 3 2 4 Y b 3 w y i y 3 , - $ , 2 e u u y 9 5 R p 2 2 , > - , - - - - +                     ",
"                    . < P j P P P P R R R R R c.P 4 y u u y e 9 2 y y u u i y 9 E E R Y Y g P l l l P g f &                     ",
"                    . < g j P P P T R R R R R R E P 6 y u u i e 5 u a u i e r E E Y Y Y Y Y P P P P P j f &                     ",
"                    . , t t g P P P P P P Y Y Y b r e y u u u e 5 y e u u e e r P P Y P g g g i f g f e t #                     ",
"                    o # , , , , , , 7 7 8 7 l f , , y u u u u e 5 y u y u u e - 7 g r < < , , , , , , , : o                     ",
"                    O @ $ $ % % % $ # - - - 3 , , 3 y y e u e e 3 y y y y y 9 2 2 , - % % % % % % $ $ $ # O                     ",
"                    o % 6 5 6 6 6 2 , e e e 2 5 5 5 e y u y u e , y y y e e 9 3 e , 5 e y e , 5 5 5 4 5 4 O                     ",
"                    . - w e e 6 e 3 3 e u e e e 6 5 y y u e y 6 2 y y e e e e 3 y y y y i u 3 6 9 9 6 6 8 @                     ",
"                    . > e e e e e 6 5 e t e u e 6 3 y y u u u 6 % e y y y e e 3 a u a a i y 2 6 9 9 6 y 6 #                     ",
"                    X # , 4 3 3 5 , > 5 , 5 4 5 , - 3 3 1 < , * # , , , 3 2 , , 6 6 5 5 5 4 ; - > , - - - O                     ",
"                    . - 8 8 8 q 0 r e 0 r r r t 9 0 q 0 s s s 1 & s f f r r q d q 0 r 0 0 0 0 8 0 8 8 8 1 +                     ",
"                    . 0 R E E E E W E W E W W c.W A.W c.F.F.W E < D.H.W c.S.W W W E E W E W E E E E E E R ;                     ",
"                    . r R E E E E E E E R E E W Z.W Z.W W W F.E < D.F.Z.W Z.W W W E E E E E E E E R R E Y ;                     ",
"                    . , r r r r r r s r s d s f g g d g f f P s ; g g g f g f f f f d s s d s r 1 s 0 0 1 +                     ",
"                    . , r r r r s s s s d d f f g d g d f g g s ; g l g g g g f g f f f s f d s 0 s r r 1 #                     ",
"                    . , r r r r s d s s d d f f f d f f g g g g ; P l g g g g f f f f s s s d s s r r r r #                     ",
"                    . = < 1 < 0 0 0 0 0 0 r 0 r 0 r r r r r s r = s s r r r r s s 0 s 0 0 0 0 8 1 r 1 < , +                     ",
"                      X X o o o o o o o o o o o o o o o o o o o o o o o o o o o o o o o o o o o o o X X X X                     ",
"                                                                                                                                ",
"                                                                                                                                ",
"                                                                                                                                ",
"                                                                                                                                ",
"                                                                                                                                ",
"                                                                                                                                ",
"                                                                                                                                "
};
