/* XPM */
static char *_e1995ad99274fe9f5acc4523f176bcdwHNKWLw7iFMKXkSb[] = {
/* columns rows colors chars-per-pixel */
"54 62 128 2 ",
"   c None",
".  c #4F2913",
"X  c #522B14",
"o  c #542F18",
"O  c #573017",
"+  c #553119",
"@  c #5A341B",
"#  c #5D381E",
"$  c #60391D",
"%  c #5D3A21",
"&  c #613E23",
"*  c #5A4432",
"=  c #5E4834",
"-  c #634126",
";  c #684326",
":  c #644529",
">  c #69462A",
",  c #664A2D",
"<  c #6B4A2D",
"1  c #6B4E31",
"2  c #634E3C",
"3  c #714F33",
"4  c #6C5033",
"5  c #64513E",
"6  c #725334",
"7  c #725638",
"8  c #765A3B",
"9  c #795C3D",
"0  c #675340",
"q  c #695542",
"w  c #6B5846",
"e  c #6E5D4A",
"r  c #705C47",
"t  c #7B5F40",
"y  c #715E49",
"u  c #7D6343",
"i  c #75614B",
"p  c #74604A",
"a  c #75614C",
"s  c #76644F",
"d  c #73614E",
"f  c #766653",
"g  c #786551",
"h  c #786651",
"j  c #796651",
"k  c #7C6852",
"l  c #7D6852",
"z  c #7D6953",
"x  c #7C6D5B",
"c  c #7E705F",
"v  c #806544",
"b  c #806647",
"n  c #816748",
"m  c #816749",
"M  c #826849",
"N  c #826949",
"B  c #81684A",
"V  c #82684A",
"C  c #83694A",
"Z  c #866948",
"A  c #846B4B",
"S  c #856C4C",
"D  c #866C4C",
"F  c #876D4C",
"G  c #846B4B",
"H  c #886F4F",
"J  c #886F50",
"K  c #887050",
"L  c #897050",
"P  c #897150",
"I  c #897051",
"U  c #8B7251",
"Y  c #8A7052",
"T  c #8B7153",
"R  c #8A7252",
"E  c #8B7252",
"W  c #8B7253",
"Q  c #8C7353",
"!  c #8D7453",
"~  c #8C7454",
"^  c #8D7454",
"/  c #8C7554",
"(  c #8D7654",
")  c #8D7556",
"_  c #8C7557",
"`  c #8D7557",
"'  c #8E7557",
"]  c #8E7657",
"[  c #8F7757",
"{  c #8B7253",
"}  c #83725E",
"|  c #81705D",
" . c #8E7658",
".. c #8F7758",
"X. c #8F7858",
"o. c #907755",
"O. c #907856",
"+. c #927957",
"@. c #907858",
"#. c #917A58",
"$. c #917A59",
"%. c #917A5B",
"&. c #917A5C",
"*. c #947C5C",
"=. c #947D5C",
"-. c #957D5C",
";. c #957D5D",
":. c #967F5E",
">. c #857460",
",. c #857663",
"<. c #857664",
"1. c #867664",
"2. c #817362",
"3. c #897965",
"4. c #8C7B67",
"5. c #8D7C67",
"6. c #968063",
"7. c #978164",
"8. c #978165",
"9. c #9C8662",
"0. c #9D8663",
"q. c #9D8763",
"w. c #9C8664",
"e. c #9D8765",
"r. c #9C8767",
"t. c #9D8768",
"y. c #9E8768",
"u. c #9E8769",
/* pixels */
"                                                                                                            ",
"                                                                                                            ",
"                                                                                                            ",
"                                                                                                            ",
"                                                                                                            ",
"                          < < 1 @                                           3 3 3 3                         ",
"                        1 Q u u @                                           < ..H F 3                       ",
"                        > ] u u @                                           < ..F F 3                       ",
"                      < $.A A 4 @                                           < t o.! L 3                     ",
"                      < $.S S 4 @                                           < t o.Y ! 3                     ",
"                      < X.S S 4 o                                           < v 0.o.@.3                     ",
"                    > %.~ W Y 4 @                                           < v 0.%.@.%.<                   ",
"                    , %.Y Y 4 1 o                                           > t u 0.O.@.<                   ",
"                    > 8. .] 1 4 O                                           < v u 0.;.;.<                   ",
"                    > 8.] ] 1 4 O                                           < v u t.;.;.>                   ",
"                    > 8.] ] 4 1 O                                           > v v t.;.;.>                   ",
"                  : 8._ _ ~ 1 1 O                                           > v v :.:.:.;.;                 ",
"                  > 8._ _ 1 1 4 o                                           > v v v u.;.-.&                 ",
"                  - 8.~ _ 4 4 < o                                           < v v v u.;.-.&                 ",
"                  - 8.P P 4 1 4 X                                           < v v v u...@.&                 ",
"                  - :.Y P 4 X < O                                           > v < v 0.....&                 ",
"                  : 8.Y H X q O o                                           ; < 1.< 0.' J $                 ",
"                  - % # @ O = O X                                           & ; g & & > & $                 ",
"                  & >.>.} q X , X                                           & 9 & >.5.5.4.$                 ",
"                  - p a p 2 O , X                                           $ v $ g l z z @                 ",
"                  & p p y X , 1 O                                           $ v 9 $ l B z @                 ",
"                  & o o X < 4 < X                                           $ v v 8 $ @ @ @                 ",
"                  & < < < < , , X                                           $ v v v Z 9 8 @                 ",
"                  - B u u , , , o                                           $ v t v ! C n @                 ",
"                  % B u u , , X 5 X                                       $ 1.$ u 9 ! C n +                 ",
"                  % B u u , > . * X                                       $ g @ t t ! n n @                 ",
"                  % u 8 8 : > X * X                                       @ a $ t t Q t u +                 ",
"                  % A t 8 , : . * X                                       $ a @ 9 9 J v t O                 ",
"                  % u 8 8 : : . * .                                       $ a @ 9 9 H v t X                 ",
"                  % u t 7 : : : +                                           O 9 7 9 H t 9 o                 ",
"                  % u 8 8 : - - X                                           O 7 7 6 H 9 9 o                 ",
"                  % u 9 8 - - - .                                           o 6 7 6 S 9 9 o                 ",
"                  % u 7 7 : - * X                                           o 6 6 6 S 7 8 X                 ",
"                  # u 7 4 - - - .                                           o 6 & 6 S 8 7 X                 ",
"                  # p 7 7 - . # X                                           X # x # B 7 8 X                 ",
"                  + u 7 7 . 5 . .                                           X @ w + N 7 7 X                 ",
"                  . @ @ @ . = . X                                           X < @ f X X X .                 ",
"                  . } c c 5 . - .                                           . , + w c | c .                 ",
"                  X e p p * . . 2 .                                       X x . - @ e r r X                 ",
"                  . r r e . # . * .                                       X 5 . < @ r r r .                 ",
"                  X . X . # # . * .                                       X 5 . < : . . X .                 ",
"                  X , > , # . 5 * .                                       . 5 i . < 6 < < .                 ",
"                  . t 7 7 # . * * .                                       . 5 q . < N 7 7 .                 ",
"                  . u 7 7 # . * .                                           . w . < u 7 7 .                 ",
"                  . u 4 7 . 5 * .                                           . q c . u 7 7 .                 ",
"                  . . . . . * * .                                           . w e . . . . .                 ",
"                  . f f f 0 * .                                               . e 2.y d d .                 ",
"                  . d w w * * .                                               . e c q w q .                 ",
"                  . f w w * * .                                               . e c q 0 q .                 ",
"                  . d w w * .                                                   . x 0 q 0 .                 ",
"                  . d w w * .                                                   . x w q q .                 ",
"                  . d w w * .                                                   . x 0 0 q .                 ",
"                  . . . . .                                                       . . . . .                 ",
"                                                                                                            ",
"                                                                                                            ",
"                                                                                                            ",
"                                                                                                            "
};
