/* XPM */
static char *d7e2bbcbba534680dcae8f5adb6b643exsxLR4XVukIcdl5u[] = {
/* columns rows colors chars-per-pixel */
"64 64 63 1 ",
"  c #6D721A",
". c #6E721A",
"X c #6E731A",
"o c #6F731A",
"O c #6E731B",
"+ c #6F731B",
"@ c #6F741A",
"# c #6F741B",
"$ c #6F741C",
"% c #70741A",
"& c #71741A",
"* c #70741B",
"= c #71741B",
"- c #70751B",
"; c #71751B",
": c #72751B",
"> c #73751B",
", c #73761B",
"< c #70741C",
"1 c #70751C",
"2 c #71751C",
"3 c #70751D",
"4 c #71751D",
"5 c #72751C",
"6 c #71761C",
"7 c #72761C",
"8 c #73761C",
"9 c #73771C",
"0 c #72761D",
"q c #73761D",
"w c #72771D",
"e c #73771D",
"r c #72761E",
"t c #73771E",
"y c #74771C",
"u c #74771D",
"i c #75771D",
"p c #74771E",
"a c #75781D",
"s c #74781E",
"d c #75781E",
"f c #75791E",
"g c #74781F",
"h c #75781F",
"j c #75791F",
"k c #76781E",
"l c #76791E",
"z c #77791E",
"x c #76791F",
"c c #77791F",
"v c #767A1F",
"b c #777A1F",
"n c #777B1F",
"m c #787B1F",
"M c #767920",
"N c #767A20",
"B c #777A20",
"V c #777B21",
"C c #787B20",
"Z c #797B20",
"A c #787B21",
"S c #797C20",
"D c #797C21",
/* pixels */
"::::::::::::::::::::::::::::::::::::::::::::::::::::::::::::::::",
"::::::::::::::::::::::::::::::::::::::::::::::::::::::::::::::::",
"::::::::::::::::::::::::::::::::::::::::::::su::::::::::::::::::",
":::::::::::::::::::uu:::::::::::::::::::::::u8::::::::::::::::::",
"::::::::::::::::::mu8:u::::::::::::::::::::::*::::::::::::::::::",
":::::::::::::::::ssN Am:::::::::::::::::::::::::::::::::::::::::",
":::::::::::::::::uM <88*::::::::::u>:s>:::::::::::::::::::::::::",
":::::::::::::::::< 8$$::::::::::::mmsA:::::::::::::::uu:::::::::",
"::::::::::::::::::::*:::::::::::::*888::::::::::::*u8M8:::::::::",
":::::::::::::::::::*::::::::::::::8 **:::::::::::>>AM8 :::::::::",
":::::::::::::::::::::::::::::::::::::::::::::::::::*$ *:::::::::",
"::::::::::::::::::::::::::::::::::::::::::::::::::::**::::::::::",
"::::::::::::::::::::::::::::::::::::::::::::::::::::::::::As>A>:",
"::::::::::::::::::::::::::::::::::::::::::::::::::::::::::uNms::",
"::::::::::::::::::::::::::::::::::::::::::::::::::::::::::*  :::",
"::::::::::::::::::::::::::::::::::::::::::::::::::::::::::::8:::",
"::::::::::::::::::::::::::::::::::::::::::::::::::::::::::::::::",
"::::::::::::::::::::::::::::::::::::::::::::::::::::::::::::::::",
"::::::::::::::::::::::::::::::::::::::::::>u::>:::::::::::::::::",
"::::::::::::::::::::::::::::u:::::::::::::>Au:uu::::::::::::::::",
"::::::::::::::::::::::::::suuu:::::::::::>ssuNu*::::::::::::::::",
":::u:8::::::::::::::::::::NN8uu:::::::::::us$8 8::::::::::::::::",
":::s8su:::::::::::::::::::888$ 8::::::::::*8u::::u:uu:::::::::::",
":::NN:us::::::::::::::::<8$$ 8*::::::::::::::::::8uss8::::::::::",
":::8888$*:::::::::::::::::::::::::::::::::::::::8 $8*:::::::::::",
":::8  $<:::::::::::::::::::::::::::::::::::::::::8<8::::::::::::",
"::::::::::::::::::::::::::::::::::::::::::::::::::::::::::::8u::",
":::::::::::::::::::::::::::::::::::::::::::::::::::::::::::uAu::",
"::::::::::::::::::usu:8:::::::::::::::::::::::::::::::::::*88:::",
"::::::::::::::::::uuuuA::::::::::::::::::::::::::::::::::::**:::",
"::::::::::::::::::: :s8:::::::::::::::::::::::::::::::::::::::::",
"::::::::::::::::::::: 8:::::::::::::::::::::::::::::::::::::::::",
":::::::::::::::::::::::>::::::::::::::::::::::::::::::::::::::::",
"::::::::::::::::::::::us::::::::::::::::::::::::::::::::::::::::",
"::::::::::::::::::::::8Au8u>::::::::::::::::::::::::::::::>::s::",
":::::::::::::::::::::::*8ss>::::::::::::::::::::::::::::::Dssm>:",
":::::::::8s8uu8::::::::*u<*::::::::::::::::::::::::::::::::8u*::",
":::::::::8Nuu>::::::::::8<::::::::::::::>:::::::::::::::::** :::",
"::::::::>*$8**::::::::::::::8u8:::::::::sss8::::::::::::::::::::",
"::::::::>***::::::::::::::::us:::::::>us8sD8::::::::::::::::::::",
"::::::::::::::::::::::::::::8$u:::::::*:>998::::::::::::::::::::",
":::::::::::::::::::u::::::::<$8::::::::*:@:8::::::::::::::::::::",
":::::::::::::::::::su8u>:::::**:::::::::::::::::::::::::::::::::",
"::::::::::::::::::mA8su:::::::::::::::::::::::::::::::::::::::::",
"::::::::::::::::*8uu$8 8::::::::::>mu:::::::::::::::::::::::::::",
":::::::::::::::::8<88*::::::::::::usu:::::::::::::::::::::::::::",
"::::::::::::::::::::::::::::::::::::*:::::::::::::::::::::::::::",
"::::::::::::::::::::::::::::::::::::::::::::::::::::::::::::::::",
"::::::::::::::::::::::::::::::::::::::::::::::::::::::::::::::::",
"::>u::::::::::::::::::::::::::::::::::::::::::::::::::::::::::::",
"::>s88:::::::::::>ms:::::::::::::::::::::::::8::::::::::::::::::",
"::uu8::::::::::::ussm::::::>::::::::::::::::sC::::::::::::::::::",
"::8:::::::::::::::@ss:::::9sss::::::::::::::8@8:::::::::::*8::::",
":::::::::::::::::::@::::>s8:ms:::::::::::::::::::::::::::*uu:8::",
":::::::::::::::::::::::::s::u88::::::::::::::::::::::::::>u8sm::",
":::::::::::::::::::::::::::::::::::::::::::::::::::::::::88uNu::",
"::8888:::::::::::::::::Ds::::::::::>:>a:::::::::::::::88:: :88::",
":::Ns8s8::::::s:::::::::8:::::::::aDsss:::::::::::::::sD8:8@@8::",
"::8Cs88:::::::@8:::::::: 8::::88::ss:s:::::::::::::::::@8:::::::",
"::8898::8::::::::ss8u>::::::::88:::s::::::::::::::::::8@::::::::",
"::::::::sDs8:::::8s9s8::::::98C9::::::::::::::::::::::::::::::::",
":::::::::8::::::::@::::::::8C888::::::::::::::::::::::::::::::::",
":::::::::@::::::::@::::::::::8::::::::::::::::::::::::::::::::::",
"::::::::::::::::::::::::::::::::::::::::::::::::::::::::::::::::"
};
