/* XPM */
static char *_86fa2df80c64d7bcd7549c4ef70ecf4CyrTj63TmOMCgcZH[] = {
/* columns rows colors chars-per-pixel */
"64 64 123 2 ",
"   c None",
".  c #54321E",
"X  c #553420",
"o  c #593926",
"O  c #5C3D2A",
"+  c #5F402C",
"@  c #61422D",
"#  c #674A37",
"$  c #6B4B36",
"%  c #6A4D39",
"&  c #6E523F",
"*  c #74513A",
"=  c #634F41",
"-  c #6C5545",
";  c #725542",
":  c #775A46",
">  c #7A5D4B",
",  c #7C614D",
"<  c #6F6051",
"1  c #7E6351",
"2  c #846552",
"3  c #896F5C",
"4  c #8B7565",
"5  c #8C7E67",
"6  c #8D7F69",
"7  c #8E816C",
"8  c #90836F",
"9  c #8D8472",
"0  c #928673",
"q  c #958976",
"w  c #998C77",
"e  c #968B78",
"r  c #998E7C",
"t  c #9B907E",
"y  c #46809E",
"u  c #48819F",
"i  c #548BA8",
"p  c #70A1B4",
"a  c #948F80",
"s  c #9C9282",
"d  c #9D9282",
"f  c #9D9383",
"g  c #9E9382",
"h  c #9E9383",
"j  c #9C9281",
"k  c #9C9583",
"l  c #9E9482",
"z  c #9E9483",
"x  c #9A9384",
"c  c #9D9384",
"v  c #9E9384",
"b  c #9E9485",
"n  c #9E9585",
"m  c #9F9685",
"M  c #9F9686",
"N  c #9F9787",
"B  c #9B9080",
"V  c #9F9688",
"C  c #9F9788",
"Z  c #9F9689",
"A  c #A09686",
"S  c #A09788",
"D  c #A09689",
"F  c #A09889",
"G  c #A19989",
"H  c #A0988A",
"J  c #A1988A",
"K  c #A1998A",
"L  c #A1988B",
"P  c #A1998B",
"I  c #A19A8A",
"U  c #A39A8B",
"Y  c #A1998C",
"T  c #A19A8C",
"R  c #A09A8D",
"E  c #A29A8D",
"W  c #A39B8D",
"Q  c #A49C8D",
"!  c #A49C8E",
"~  c #A59D8F",
"^  c #A69E90",
"/  c #A79F91",
"(  c #A7A091",
")  c #A8A090",
"_  c #A9A190",
"`  c #A8A091",
"'  c #A9A191",
"]  c #A9A192",
"[  c #A9A193",
"{  c #AAA193",
"}  c #AAA292",
"|  c #AAA293",
" . c #A8A194",
".. c #AAA294",
"X. c #AAA295",
"o. c #ABA395",
"O. c #ABA396",
"+. c #ABA495",
"@. c #ACA495",
"#. c #ACA496",
"$. c #ACA497",
"%. c #ACA597",
"&. c #ADA597",
"*. c #ADA598",
"=. c #ADA698",
"-. c #ADA699",
";. c #AEA699",
":. c #AEA69A",
">. c #AFA69A",
",. c #AEA79A",
"<. c #AFA79A",
"1. c #AFA69B",
"2. c #AFA79B",
"3. c #AFA79C",
"4. c #B0A79B",
"5. c #B0A89B",
"6. c #B0A89C",
"7. c #B0A99C",
"8. c #B1A99C",
"9. c #B1A99D",
"0. c #B1A99E",
"q. c #B2AA9E",
"w. c #B7B0A5",
/* pixels */
"                                                                                                                                ",
"                                                                                                                                ",
"                                                                                                                                ",
"                                                                                                                                ",
"                                                                                                                                ",
"                                                                                                                                ",
"                                                                                                                                ",
"                                                                                                                                ",
"                                                                                                                                ",
"                                                                                                                                ",
"                                              $ % % % % % % $ % % $ % % $ % % $                                                 ",
"                                            # | ) +.) ) ) | ) ) | ) ) | ) ) | ) $                                               ",
"                                          # 2.| ) ) ) ) | | ^ ) ) ) | ~ | ) ~ ) 2.%                                             ",
"                                          $ 2./ } | | } / o.| | | | ( | | | | | 2.%                                             ",
"                                          % 2.o.| o.#.o.o.o.o.+.| +.| o.| | | | 2.#                                             ",
"                                          % 2.o.o.o.o.o.o.o.o.| L +.+.o.| +.+.o.5.&                                             ",
"                                          % 2.o.$.+.$.$.$.$.$.$.$.$.$.$.} $.$.$.6.%                                             ",
"                                          % 2.$.$.$.$.$.=.$.=.$.=.$.$.$.=.$.$.=.6.%                                             ",
"                                          % 2.$.$.$.$.$.$.$.=.$.$.2.=.$.$.$.=.$.6.%                                             ",
"                                          % 2.$.$.2.$.$.2.$.$.2.$.$.$.=.$.=.$.$.6.%                                             ",
"                                          % 3.2.$.2.3 2.$.#.#.2.=.5.$.5.4 2.$.$.q.%                                             ",
"                                          % 5.$.$.2 L 1 2.2.$.$.=.$.$.2 E 1 2.$.6.&                                             ",
"                                          % 6.2.> L L E > $.2.#.$.$.> U E C > 2.6.%                                             ",
"                                          % 6.2., L 4 L , $.$.2.5.2., L 4 L > 6.6.%                                             ",
"                                          % 6.: E 4 4 4 D ; 6.6.6.; L 4 4 4 L & 6.%                                             ",
"                                          @ ^ : C C C C D : A d b ; L b N N N & ( @                                             ",
"                                          @ ^ B B B B s B d d c d d d d z b b b ( @                                             ",
"                                          - ~ B B B B B B B B B t B d B B d z z ^ @                                             ",
"                                          < E r r B B B r B B a B r t t B t d d ~ @                                             ",
"                                          < C B > > : > > , r r t , , : , , , t ~ @                                             ",
"                                          - x r r w.u u w.r r r r r w.y y w.t t ~ @                                             ",
"                                          @ a r r w.p i w.r r r r r w.p i w.r r ~ @                                             ",
"                                          @ x e r r w r r r r e e r r e r r r r U @                                             ",
"                                          + x e e e q r q e e q q q q r q e q r L @                                             ",
"                                          @ d 0 q r r q e q e * q e q e e e r e A @                                             ",
"                                          + d e q q e q q r q $ e q e q q e q e A @                                             ",
"                                          @ d e q e q q q e $ q $ q q q q e e e A @                                             ",
"                                          O t q q q e q q $ q q q $ q q q q q e A @                                             ",
"                                          + a e q e q q q q e q q q q q q q q q t @                                             ",
"                                          + r e 9 0 q q q q 0 e q q q q q q q q t @                                             ",
"                                          + t q q q 9 0 0 q 0 0 0 q 0 0 q q q q t @                                             ",
"                                          + t 0 q 9 0 q 0 0 q 0 q 0 0 q 0 q 0 0 t @                                             ",
"                                          + w 0 q 0 9 q e 0 0 q 0 q 0 0 0 q 0 0 t @                                             ",
"                                          + w 0 0 0 0 9 9 0 0 0 0 0 0 0 0 0 0 0 w @                                             ",
"                                          + w 0 0 8 9 0 8 0 0 0 0 0 0 0 0 0 0 0 w @                                             ",
"                                          O w 7 0 7 9 9 0 9 7 0 0 0 8 9 0 8 0 8 w @                                             ",
"                                          O r 7 0 8 8 7 9 8 9 8 7 0 0 0 8 0 8 0 w @                                             ",
"                                          O w 7 7 8 7 9 7 7 7 7 7 7 6 8 6 8 8 6 w @                                             ",
"                                          o q 8 7 7 7 7 7 9 7 7 8 6 6 8 6 8 8 8 q +                                             ",
"                                          o 0 7 7 7 7 8 7 7 7 7 6 6 8 8 8 8 6 6 w O                                             ",
"                                          o q 7 7 7 7 7 7 7 9 7 8 6 8 6 6 6 8 5 0 o                                             ",
"                                          o q 7 5 5 7 7 7 7 7 9 8 7 5 8 6 6 6 6 q O                                             ",
"                                          . q 6 5 5 6 6 6 6 6 6 9 6 9 6 6 6 6 5 q .                                             ",
"                                            X o o o o o o o o o # = = = o o o o .                                               ",
"                                                                                                                                ",
"                                                                                                                                ",
"                                                                                                                                ",
"                                                                                                                                ",
"                                                                                                                                ",
"                                                                                                                                ",
"                                                                                                                                ",
"                                                                                                                                ",
"                                                                                                                                ",
"                                                                                                                                "
};
