/* XPM */
static char *_c57f8d74b034723e277738937813665M9CsUqPZdgEYyrOW[] = {
/* columns rows colors chars-per-pixel */
"64 64 93 2 ",
"   c #4F2913",
".  c #522E19",
"X  c #53311B",
"o  c #55321C",
"O  c #55331E",
"+  c #56341E",
"@  c #56351F",
"#  c #573521",
"$  c #583622",
"%  c #583724",
"&  c #583824",
"*  c #5A3B27",
"=  c #553A2D",
"-  c #5B3C29",
";  c #5A3D29",
":  c #626017",
">  c #656C17",
",  c #686F16",
"<  c #72751B",
"1  c #5C402C",
"2  c #5E422F",
"3  c #624835",
"4  c #654935",
"5  c #614939",
"6  c #66513F",
"7  c #787B21",
"8  c #5E4E43",
"9  c #675240",
"0  c #655444",
"q  c #6C5847",
"w  c #62544A",
"e  c #63564C",
"r  c #63564D",
"t  c #605C48",
"y  c #61584C",
"u  c #64584E",
"i  c #695948",
"p  c #6D5A4B",
"a  c #6C5D4F",
"s  c #675D54",
"d  c #64604B",
"f  c #6D6051",
"g  c #686257",
"h  c #6B6256",
"j  c #6A6357",
"k  c #6C6852",
"l  c #676159",
"z  c #686159",
"x  c #686258",
"c  c #6A6259",
"v  c #6A635A",
"b  c #6B6458",
"n  c #6C665A",
"m  c #6D675B",
"M  c #746A5D",
"N  c #716C62",
"B  c #736D62",
"V  c #736E64",
"C  c #757064",
"Z  c #777366",
"A  c #7B7669",
"S  c #78746B",
"D  c #79766B",
"F  c #7C7B6E",
"G  c #7F7B6F",
"H  c #807F72",
"J  c #827F73",
"K  c #817D74",
"L  c #827E76",
"P  c #837F76",
"I  c #7F8124",
"U  c #7F8226",
"Y  c #828074",
"T  c #838074",
"R  c #828077",
"E  c #848377",
"W  c #838279",
"Q  c #868579",
"!  c #878679",
"~  c #86847A",
"^  c #87857C",
"/  c #87867C",
"(  c #87867D",
")  c #88867D",
"_  c #8A887F",
"`  c #8D8B83",
"'  c #8E8D84",
"]  c #8F8D84",
"[  c #908E85",
"{  c #908E86",
"}  c #918F87",
"|  c #939189",
" . c #94928B",
/* pixels */
"* * * * * * * * * * * * * * * * 9 * * * * * * * * * * * - - * * * * * * * * * * * * * * * * * * 6 * * * - * * * * * * * * * * * ",
"Q Q Q Q Q Q Q Q Q Q Q Q Q Q Q Q 6 Q Q Q Q Q Q Q Q Q Q Q Q Q Q Q Q Q Q Q Q Q Q Q Q Q Q Q Q Q Q Q 9 Q Q Q Q Q W ! Q ! ! W ! ! ! W ",
"Q Q Q Q Q Q Q Q Q Q Q Q Q Q ] ] 6 Q Q Q Q Q Q Q Q Q Q Q Q Q Q Q Q Q Q Q Q Q Q Q Q Q Q Q Q Q Q  .6 ] ] Q W Q Q W Q ! W ! W ! ! ! ",
"Q Q Q Q Q Q Q Q Q Q Q Q } } n n X Q Q Q Q Q Q Q Q Q Q Q Q Q Q ) Q Q Q Q Q Q Q Q Q Q Q Q Q  . .y 1 b b ] ] ] ] ] ] E ! ! ! ! ! W ",
" . . . . . . . . . . . .r y b n X  . . . . . . . . . . . . . . . . . . . . . . . . . . . .y y y - Z Z Z Z j b b n  . . . . . . .",
"z z z z j z l j l g g g D y e n @ l g l z j j l b l b z z b v v z z l l l j j l l g g g z N y y   Z Z Z b G G W J z b z x n n x ",
"z z z z l z j l j l g g g S y .   j z j j z g l l z b z z b z b z z l l j l l j l j j l j j N   <   Z b L l b l z z z z z z l n ",
"  z z j j s r =               < <                                                             < < <               8 u u u y e = ",
"@ D } Q Q Q Q @ : : < < < < < < < ) Y H H H H H H H H H H H Q < < ) J G H H H H H H H H H H ( < < < < < < < < <   Q Q Q Q  .N - ",
"* D D } ] Q Q O : : < < < < < < < ) H H H H H H H H H H H H _ < < ) H H H H H H H H H H H H ( < < < < < < < < <    . . . .N C - ",
"$ D h h j } ] # : : < < < < < < < ( H H H H H H H H H H H H _ < < _ H H H H H H H H H H H H ) < < < < < < < < <     - * h h C - ",
"$ j j O O 4 3 @ : : < < < < < < < ( H H H H H H H H H H H H ( < < ( H H H H H H H H H H H Y ) < < < < < < < < <   ! Q Q $ h h - ",
"$ # O Q Q Q Q @ : : < < < < U < < ( Y H H H H H H H H H H H < < < ( H H H H H H H H H H H H ( < < < < < < < < <   Q Q Q Q 3 4 - ",
"$  .Q Q Q Q Q @ : : < < < U < < < ( H H H H H H H H 7 U H < < < < ( H H H H H H H H H H H H ( < < < < < < < < <   Q Q Q Q Q  .- ",
"%  .Q Q Q Q Q @ : : < < 7 7 < < < ( H H H H H H H G H U U < < < < ) Y G H H H H H H H H H H ( < < < < < < < < <   Q Q Q Q Q  .- ",
"%  .Q Q Q Q Q @ : : < < 7 7 > < < d ` ` ` ` ` ` ` ` ] 7 7 7 < < < d ` ` ] ` ` ` ` ` ` ` ` ` d < < < < < < < < <   Q Q Q Q Q  .- ",
"%  .Q Q Q Q Q # : : < < > > 7 U < < d d d d d d d d d > 7 7 > 7 7 U U t d d d d d d d d d t < < < < < < < < < <   Q Q Q Q Q  .- ",
"%  .Q Q Q Q Q O : : < < < < 7 7 < < < < < < < < < < < < > > 7 7 7 < < < < < < < < < < < < < < < < < < < < < < <   Q Q Q Q Q  .- ",
"%  .Q Q Q Q Q # : : < < < < > > < < J H H H H H H H H H H H 7 7 > < E F F F F F F F F F < < < < < < < < < < < <   Q Q Q Q Q  .- ",
"%  .Q Q Q Q Q O : : < < < < < < < ) J G H H H H H H H H H H 7 > < W F F F F F F F F F F G < < < < < < < < < < <   Q Q Q Q Q  .- ",
"#  .Q Q Q Q Q # : : < < < < < < < ( H H H H H H H H H H H G ) < < W F F F F F F F F F F F F W < < < < < < < < <   Q Q Q Q Q  .- ",
"*  .Q Q Q Q Q O : : < < < < < < < ! H H H H H H H H H H H Y ) < < W F F F F F F F F F F F F W < < < < < < < < <   Q Q Q Q Q  .- ",
"#  .Q Q Q Q Q @ : : < < < < < < < _ H H H H H H H H H H H H ) < < W F F F F F F F F F F F F W < < < < < < < < <   Q Q Q Q Q  .- ",
"%  .Q Q Q Q Q O : : < < < < < < < ( H H H H H H H H H H H H ) < < W F F F F F F F F F F F F W < < < < < < < < <   Q Q Q Q Q  .- ",
"%  .Q Q Q Q Q @ : : < < < < < < < ( Y H H H H H H H H H H H ( < < W F F F F F F F F F F F F W < < < < < < < < <   Q Q Q Q Q  .- ",
"%  .Q Q E E Q @ : : < < < < < < < < ` ] ` ` ` H H H H H H H ( < < W F F F F F F F F F F F F W < < < < < < < < <    . . . . . .- ",
"#  .} } } } } @ : : < < < < < < < < t d d d d ` H H H H H H _ < < W F F F F F F F F F F F F W < < < < < < < < <     0 0 0 0   - ",
"% # 4 4 4 4 O @ : : < < < < < < < ( H Y H < < d ` H H H H Y Q < < ~ F F F F F F F F F F F F L < < < < < < < < <   Q Q Q Q Q  .- ",
"%  .Q Q Q Q Q @ : : < < < < < < < ( H H H H < < d ` H H H H ( < < W F F F F F F F F F F F F L < < < < < < < < <   Q Q Q Q Q  .- ",
"-  .Q Q Q Q Q # : : < < < < < < < ) H H H H H H < d ` ` H H ( < < < < F F F F F F F F F F F W < < < < < < < < <   Q Q Q Q Q  .- ",
"#  .Q Q Q Q Q O : : < < < < < < < ) Y G H H H H < < d d H H ( < < < < < F F F F F F F S F F Q < < < < < < < < <   Q Q Q Q Q  .- ",
"O  .Q Q Q Q Q O : : < < < < < < < d ] ` ` ` ` ` < < < < ` ` d < < < < < < ` ( ( Q ] ( ] Q ` t < < < < < < < < <   Q Q Q Q Q  .- ",
"#  .Q Q Q Q Q # : : < < < < < < < < d d d d d t < < < < t t < < < < < < < t t t t t t t t t < < < < < < < < < <   ! Q Q Q Q | * ",
"&  .Q Q Q Q Q O : : < < < < < < < < < < < < < < < < < < < < < < < < < < < < < < < < < < < < < < < < < < < < < <   Q Q Q Q Q  .* ",
"&  .Q Q Q Q Q @ : : < < < < < < < < F F G G F F F F F F J F < < < < Q ! ! ! ! ! ! ! ! ! ! ! < < < < < < < < < <   Q Q Q Q !  .- ",
"%  .Q Q Q Q Q O : : < < < < < < < W F F F F F F F F F F F F W < < ` Q Q ! ! ! ! ! ! ! ! ! ! [ < < < < < < < < <   Q Q Q Q !  .- ",
"%  .Q Q Q Q Q @ : : < < < < < < < W G F F F F F F F F F F F L < < ` ! ! ! ! ! ! ! ! ! ! ! ! [ < < < < < < < < <   Q Q Q Q Q  .- ",
"%  .Q Q Q Q Q @ : : < < < < < < < W F F F F F F F F F F F F Q < < ] ! ! ! ! ! ! ! ! ! ! ! ! _ < < < < < < < < <   Q Q Q Q Q  .- ",
"%  .Q Q Q Q Q @ : : < < < < < < < W F F F F F F F F F F F F W < < _ ! ! ! ! ! ! ! ! ! ! ! ! [ < < < < < < < < <   Q Q Q Q Q  .- ",
"%  .Q Q Q Q Q @ : : < < < < < < < W F F F F F F F F F F F F Q < < _ ! ! ! ! ! ! ! ! ! ! ! ! _ < < < < < < < < <    . .Q Q Q  .- ",
"%  .Q Q Q Q  .# : : < < < < < < < W F F F F F F F F F F F F W < < _ Q ! ! ! ! ! ! ! ! ! ! ! [ < < < < < < < < <   a f  . .E  .- ",
"%  .Q Q  . .j @ : : < < < < < < < Q F F F F F F F F F F F ` W < < _ ! ! ! ! ! ! ! ! ! ! ! ! [ < < < < < < < < <   A D q i  . .- ",
"%  . . .q p N O : : < < < < < < < W F F F F F F F F F G ( t t < < ] ! ! ! ! ! ! ! ! ! ! ! ! [ < < < < < < < < <   F j s h 2   - ",
"% # 3 4 B B B @ : : < < < < < < < W F F F F F F F F F ( t < < < < ] ! ! ! ! ! ! ! ! ! ! ! ! _ < < < < < < < < <   A j j 3 Q  .- ",
"$  .Q Q @ B h @ : : < < < < < < < W F F F F ( ( ( ] Q t < < < < < ] ! ! ! ! ! ! ! ! ! ! ! ! [ < < < < < < < < <   j j 3 Q Q  .- ",
"$  .Q Q ! @ h @ : : < < < < < < < L F F F ] t t t t < < < < < < < ` Q Q ! ! ! ! ! ! ! ! ! ! _ < < < < < < < < <   . @ Q Q Q  .- ",
"%  .Q Q ! O h @ : : < < < < < < < W D F ` t < < < F F F G _ < < < ` Q Q ! ! ! ! ! ! ! ! ! ! [ < < < < < < < < <   Q Q Q Q Q  .- ",
"%  .Q ! Q ! @ $ : : < < < < < < < r ` ( t < < < F F F F F _ < < < k  . .| | | | | | | | | | k < < < < < < < < <   Q Q Q Q Q  .- ",
"%  .! Q Q Q Q $ : : < < < < < < < < t t < I < < _ _ _ _ _ t < < < < d d d d d d d d d d d d < < < < < < < < < < . Q Q Q Q Q  .* ",
"%  .Q Q Q Q Q O : : < < < < < < < < < < 7 7 < < U I < t t < < < < < < < < < < < < < < < < < < < < < < < < < < <   Q Q Q Q Q  .- ",
"%  .Q Q Q Q Q O : : < < < < < < < 7 < < 7 , < I 7 U < < < < < < < < H H H H H H H H H H H H < < < < < < < < < <   Q Q Q Q Q  .- ",
"%  .Q Q Q Q Q $ : : < < < < < < < < U 7 > < < < 7 , < < < < < < < W H H H H H H H H H H H H Q < < < < < < < < <   Q Q Q Q !  .- ",
"%  .Q Q Q Q ~ O : : < < < < < < < < 7 7 < < 7 7 , 7 U < < < < < < Q H H H H H H H H H H H H ( < < < < < < < < <   Q Q Q Q Q  .- ",
"%  .Q Q Q Q ! O : : < < < < < < < < < , < < 7 , 7 7 , < < < < < < ( H H H H H H H H H H H H Q < < < < < < < < <   Q Q Q Q Q  .- ",
"%  .Q Q Q Q Q $ : : < < < < < < < < < < < < > , 7 , < < < < < < < ( H H H H H H H H H H H H ( < < < < < < < < <   Q Q Q Q Q  .- ",
"%  .Q Q Q Q Q O : : < < < < < < < < < < < < < < < < < < < < < < < ( H H H H H H H H H H H H ( < < < < < U < < <   Q Q Q Q Q  .- ",
"&  .Q Q Q Q Q @ : : < < < < < < < < < < < < < < < < < < < < < < < ! G E G G H H H H H H H H ( < < < < < , 7 < <   Q Q Q Q Q  .- ",
"* M T L J E F 5 * * * * * * * * 9 * * * * * * * * * * * - - - - - - * - - * * - * * * * * * * * 6 * * * * - - * * Y J J J Y A * ",
"Q Q Q Q Q Q Q Q E Q Q Q Q ! Q Q 9 Q Q Q Q Q Q Q Q Q Q Q Q Q Q Q Q Q Q Q Q Q Q Q Q Q Q Q Q Q Q Q 9 ! Q Q Q Q Q ! Q Q Q Q Q Q Q Q ",
"Q Q Q Q Q Q Q Q Q Q Q Q Q J } } 6 Q Q Q Q Q Q Q Q Q Q Q Q Q Q Q Q Q Q Q Q Q Q Q Q Q Q Q Q Q Q  .6 } ] Q Q Q E E Q Q Q Q Q Q Q Q ",
"Q Q Q Q Q Q Q Q Q Q Q Q  .} j n X Q Q Q Q Q Q Q Q Q Q Q Q Q Q Q Q Q Q Q Q Q Q Q Q Q Q Q E  . .y - b b ] } [ ` ] ` ! ! ! Q Q Q Q ",
" . . . . . . . . . . . .e t n n X  . . . . . . . . . . . . . . . . . . . . . . . . . . . .y y y - Z Z Z Z z j j j  . . . . . . .",
"z z z z j z g l l g g g D y r b @ g l j z j z b z b l l b v b b l l l l x x x x j g g g j N y y   Z Z Z j L L L J s n z z z z n ",
"z z z z l j l j l g g g j S r .   l j z j z z b z z z l l l b b z z l l l g b l l g l g l b N   <   Z b P z z n z v z z b z n z "
};
