/* XPM */
static char *dc298823699c464aacba1b4011069b70MTCW5ebZhYBbgtgE[] = {
/* columns rows colors chars-per-pixel */
"64 64 65 1 ",
"  c #4F2913",
". c #53301A",
"X c #55321C",
"o c #55331E",
"O c #56341E",
"+ c #56341F",
"@ c #573521",
"# c #573723",
"$ c #583622",
"% c #583724",
"& c #583824",
"* c #583B28",
"= c #5B3C29",
"- c #585914",
"; c #626017",
": c #656C17",
"> c #686F16",
", c #67651B",
"< c #6C6B1F",
"1 c #72751B",
"2 c #5E422F",
"3 c #624835",
"4 c #654935",
"5 c #644A38",
"6 c #787B21",
"7 c #655444",
"8 c #6C5847",
"9 c #605C48",
"0 c #695948",
"q c #685849",
"w c #6D5A4B",
"e c #6C5D4F",
"r c #64604B",
"t c #6F6050",
"y c #6B6256",
"u c #6C6852",
"i c #736E63",
"p c #746F63",
"a c #747064",
"s c #757064",
"d c #79766A",
"f c #79766B",
"g c #7C7B6E",
"h c #807F72",
"j c #7F8124",
"k c #7F8226",
"l c #828077",
"z c #848377",
"x c #838178",
"c c #838279",
"v c #848279",
"b c #868579",
"n c #878679",
"m c #86847B",
"M c #87867C",
"N c #87867D",
"B c #88867D",
"V c #8A887F",
"C c #8D8B83",
"Z c #8E8C83",
"A c #8F8E85",
"S c #908E85",
"D c #918F87",
"F c #939189",
"G c #94928B",
/* pixels */
"%Gbbbbb+;;111111119999999999991111uuuuu11111111111111111 mbbbbG*",
"%Gbbbbb+;;1111111111111111111111111111111111111111111111 bbbbbG*",
"%Gbbbbb+;;11111111hhlhhhggggfl1111llgbgbh111111111111111 bbbbnG*",
"%Gbbbbb+;;1111111bhhhhhhhhhhllM11bglzglgh111111111111111 bbbbBG=",
"%Gbbbbb+;;1111111BlhhhhhhhhhhhV11bgzgzgzhh11111111111111 bbbbbG*",
"%Gbbbbb+;;1111111Blhhhhhhhhhhhb11zzgzgzghhhhhhM111111116 bbbbbG=",
"%Gbbbbb+;;1111111Mhhhhhhhhhhhhb11bgzgzgzhhhhhhM111111111 bbbbbG=",
"%Gbbbbb+;;1111111bhhhhhhhhhhhhb11nzgzgzghhhhhhM111111111 bbbbGs=",
"%fDbbbb+;;1111111VlhhhhhhhhhllC11nblzgzzddzzhhM111111111 bbbbGi&",
"%ffAAbb+;;1111111nhhhhhhhhhhggb11nglgzdzzzzdhhM111111111 GGGGis=",
"%fyyyAA+;;1111111Mhhhhhhhhhhlln11bllzgbggzdzhhn111111111  **yys=",
"%yy++44+;;1111111bhhhhhhhhhhhhn11blggzglzzdzhgA111111111 bbb&yy=",
"#++bbbb+;;1111k11nbhhhhhhhhhhh111nllgllggzldzzn111111111 bbbb35*",
"%Gbbbbb+;;111k111nhhhhhhhh1jl1111nllgllbzgbbzdS111111111 bbbbbG=",
"%Gbbbbb+;;1166111nllhhzzllzjk1111nlbbbzbgzzbzzn111111111 bbbbbG=",
"%Gbbbbb+;;1166:11rVSVVVVVAS166111rnVbbbnbbnnbn<111111111 bbbbBG=",
"%Gbbbbb+;;11::6k11rrrrrrrrr:16:66kkrrrrrrrrrrr1111111111 bbbbbG*",
"%Gbbbbb+;;111166111111111111:>66611111111111111111111111 bbbbbG=",
"%Gbbbbb+;;1111::11hhhhhhhhhhlh1j:1gggggggggg111111111111 bbbbbG=",
"%Gbbbbb+;;1111111Vhhhhhhhhhhlh1>1bggggggggggg11111111111 bbbbnG=",
"%Gbbbbb+;;1111111BhhhhhhhhhhhhB11cggggggggggggg111111111 bbbbbG=",
"%Gbbbbb+;;1111111bhhhhhhhhhhhlB11cggggggggggggA<11111111 bbbbbG=",
"%Gbbbbb+;;1111111BhhhhhhhhhhhhB11cggggggggggggb111111111 bbbbbG=",
"%Gbbbbb+;;1111111BhhhhhhhhhhhhB11cggggggggggggc111111111 bbbbbG=",
"%Gbbbbb+;;1111111Blhhhhhhhhhhhb11xggggggggggggx111111111 bbbbbG=",
"%Gbbbbbo;;11111111CCCCChhhhhhhB11xggggggggggggx111111111 GGGGGG=",
"$GDADSD+;;11111111rrrrrChhhhhhB11xggggggggggggh111111111  7777 =",
"$#4444X+;;1111111bhhh11rChhhhlB11xggggggggggggx111111111 bbbbbG=",
"%Gbbbbbo;;1111111Bhhhh11rChhhhB11xggggggggggggl111111111 bbbbbG=",
"&Gbbbbb#;;1111111Bhhhhhh1rCChhB1111gggggggggggx111111111 bbbbbG=",
"$Gbbbbbo;;1111111Blhhhhh11rrhhb11111ggggggggggb111111111 bbbbbG=",
"#Fbbbbbo;;1111111rCCCCCC1111CCr111111CnABCBBCB9111111111 bbbbbG=",
"$Gbbbbbo;;11111111rrrrrr1111rr11111119999999991111111111 nbbbbF&",
"%Gbbbbb#;;1111111111111111111111111111111111111111111111 nznbbG=",
"%Gbbbbbo;;11111111gggggggggggg1111bbnnBbnnnnnn1111111111 nnnbbG=",
"%Gbbbbbo;;1111111cggggggggggggc11CbbnnnnnnnnnnV111111111 nnnbbG=",
"%Gbbbbbo;;1111111xggggggggggggc11CnnnnnnnnnnnnS111111111 bbbbbG=",
"%Gbbbbb%;;1111111xggggggggggggx11CnnnnnnnnnnnnS111111111 bbbbbG=",
"%Gbbbbh@;;1111111Bggggggggggggb11CnnnnnnnnnnnnV111111111 bbbbbG=",
"%GbbbbB@;;1111111xggggggggggggc11BnnnnnnnnnnnnS111111111 GGbbbG=",
"%GbnnxG+;;1111111xggggggggggggc11CbbnnnnnnnnnnV111111111 eeGGbG*",
"%GMcGGto;;1111111xggggggggggfCc11BnnnnnnnnnnnnS111111111 gf00GG=",
"%GGG8wi+;;1111111cgggggggggfM9911CnnnnnnnnnnnnS111111111 fyyy2 =",
"%#44sis$;;1111111MgggggggggC91111SnnnnnnnnnnnnS111111111 fyy3BG=",
"$Gbboiy+;;1111111cggggbCMCM911111CnnnnnnnnnnnnV111111111 yy3bbG&",
"$Fbbboy+;;1111111cgggC99991111111SnnnnnnnnnnnnS111111111 .+bbbG*",
"&Gbbb+y+;;1111111cggB9111ggggC111BnnnnnnnnnnnnS111111111 bbbnbG=",
"%Gbnnb++;;11111119cC9111gggggM111uGFFFFFFFFFFFu111111111 bnnnVG=",
"%Gbbbbb+;;11111111rr1k11MVMCb91111rrrrrrrrrrr91111111111 bbbbbF*",
"%Gbbnbbo;;1111111111j111kk699111111111111111111111111111 bbbbbG*",
"%Gbbbzb+;;11111111111>166k11111111hhhhhhhhhhlg1111111111 bbbbbG=",
"%GbbMbno;;11111111j1>11j6>1111111zhhhhhhhhhhlll111111111 bbbbbG=",
"%Gbbbbb+;;111111111j111j>6j111111blghhhhhhhhhhM111111111 bbbbbG=",
"%GbbbbMo;;111111111>11j>66>111111bllhhhhhhhhhhC111111111 bbbbbG=",
"%Gbbbbbo;;111111111111>>6>1111111nglhhhhhhhhhhM111111111 bbbbbG=",
"%Gbbbbb#;;11111111111111111111111MglhhhhhhhhhhM11111k611 bbbbbG=",
"$Gnnnnn+;;11111111111111111111111nllhllhhhhhhhV11111:661 bbbbbG=",
"$Gznznno;;1k111111111111111111111nCCVChhhhhhhhn111111:66 GGGGGG=",
"&GCDCDDX;;k1111111111111111111111rrrrrnbhhhhhhM111111:66  7777 =",
"$%4444+o;<k111111111111111111111111111rVhhhhhhjj611111:6 bbbbbG=",
"%Gbbbbbo;,61111111111111111111111111111rCCClhhBk66111111 bbbbbG=",
"&Gbbbbb#;,:11111111111111111111111111111rrrChlB:66111111 bbbbbG=",
"$Gbbbbbo;-111111111111111111111111111111111rCCr1::111111 bbbbbG=",
"#Gbbbbno;;1111111111111111111111111111111111r91111111111 bbbbbG="
};
